<?xml version="1.0" encoding="utf-8"?>
<svg version="1.1" xmlns="http://www.w3.org/2000/svg" viewBox="0 0 45 28">
    <path
        stroke="none"
        fill-rule="evenodd"
        transform="translate(-42, -394)"
        d="M61.7551095,400.5 L67.7551095,400.5 L67.7551095,394.5 L61.7551095,394.5 L61.7551095,400.5 Z M61.7551095,421.5 L67.7551095,421.5 L67.7551095,415.5 L61.7551095,415.5 L61.7551095,421.5 Z M73.7551095,421.5 L79.7551095,421.5 L79.7551095,415.5 L73.7551095,415.5 L73.7551095,421.5 Z M49.7551095,421.5 L55.7551095,421.5 L55.7551095,415.5 L49.7551095,415.5 L49.7551095,421.5 Z M54.2551095,412.5 L51.2551095,412.5 L51.2551095,406.5 L63.2551095,406.5 L63.2551095,403.5 L66.2551095,403.5 L66.2551095,406.5 L78.2551095,406.5 L78.2551095,412.5 L75.2551095,412.5 L75.2551095,409.5 L66.2551095,409.5 L66.2551095,412.5 L63.2551095,412.5 L63.2551095,409.5 L54.2551095,409.5 L54.2551095,412.5 Z"
    />
</svg>
